<svg data-v-423bf9ae="" xmlns="http://www.w3.org/2000/svg" viewBox="0 0 376 90" class="iconLeft"><!----><!----><!----><g data-v-423bf9ae="" id="b21e9438-6646-49c1-ad46-e677556beb70" fill="#7367f0" transform="matrix(5.272407679843658,0,0,5.272407679843658,108.31282292381158,18.69068370371315)"><path d="M6.50 10.50L5.25 5.00L4.00 10.50L1.69 10.50L0.32 3.08L2.10 3.08L2.90 8.54L4.16 3.08L6.34 3.08L7.60 8.54L8.40 3.08L10.19 3.08L8.81 10.50L6.50 10.50ZM16.88 9.68L16.88 9.68L16.88 9.68Q16.04 10.68 14.36 10.68L14.36 10.68L14.36 10.68Q12.68 10.68 11.84 9.68L11.84 9.68L11.84 9.68Q11.00 8.68 11.00 7.01L11.00 7.01L11.00 6.57L11.00 6.57Q11.00 4.89 11.84 3.89L11.84 3.89L11.84 3.89Q12.68 2.90 14.36 2.90L14.36 2.90L14.36 2.90Q16.04 2.90 16.88 3.89L16.88 3.89L16.88 3.89Q17.72 4.89 17.72 6.57L17.72 6.57L17.72 7.01L17.72 7.01Q17.72 8.68 16.88 9.68ZM12.82 7.01L12.82 7.01Q12.82 9.09 14.36 9.09L14.36 9.09L14.36 9.09Q15.90 9.09 15.90 7.01L15.90 7.01L15.90 6.57L15.90 6.57Q15.90 4.48 14.36 4.48L14.36 4.48L14.36 4.48Q12.82 4.48 12.82 6.57L12.82 6.57L12.82 7.01ZM22.69 2.90L22.69 2.90L22.69 2.90Q22.74 2.90 22.81 2.91L22.81 2.91L22.81 2.91Q22.89 2.91 22.90 2.91L22.90 2.91L22.90 4.68L22.60 4.68L22.60 4.68Q21.39 4.68 20.87 5.46L20.87 5.46L20.87 10.50L19.05 10.50L19.05 5.18L18.93 3.08L20.54 3.08L20.69 3.98L20.69 3.98Q21.43 2.90 22.69 2.90ZM25.97 10.50L24.15 10.50L24.15-0.70L25.97-0.70L25.97 6.08L28.50 3.08L30.70 3.08L28.21 5.89L30.70 10.50L28.59 10.50L26.96 7.31L25.97 8.44L25.97 10.50ZM33.66 10.50L31.84 10.50L31.84-0.70L33.66-0.70L33.66 10.50ZM37.16 10.50L35.34 10.50L35.34 3.08L37.16 3.08L37.16 10.50ZM35.25-0.18L37.24-0.18L37.24 1.79L35.25 1.79L35.25-0.18ZM41.68 9.27L41.68 9.27L41.68 9.27Q42.31 9.27 42.63 9.02L42.63 9.02L42.63 9.02Q42.95 8.76 42.95 8.34L42.95 8.34L42.95 8.34Q42.95 7.87 42.64 7.67L42.64 7.67L42.64 7.67Q42.34 7.46 41.54 7.39L41.54 7.39L41.54 7.39Q40.00 7.27 39.34 6.80L39.34 6.80L39.34 6.80Q38.68 6.33 38.68 5.35L38.68 5.35L38.68 5.24L38.68 5.24Q38.68 4.09 39.50 3.49L39.50 3.49L39.50 3.49Q40.32 2.90 41.68 2.90L41.68 2.90L41.68 2.90Q44.69 2.90 44.69 5.43L44.69 5.43L44.69 5.50L42.91 5.50L42.91 5.50Q42.91 4.31 41.68 4.31L41.68 4.31L41.68 4.31Q41.10 4.31 40.79 4.55L40.79 4.55L40.79 4.55Q40.47 4.79 40.47 5.19L40.47 5.19L40.47 5.19Q40.47 5.63 40.76 5.83L40.76 5.83L40.76 5.83Q41.05 6.03 41.83 6.09L41.83 6.09L41.83 6.09Q43.34 6.22 44.06 6.66L44.06 6.66L44.06 6.66Q44.77 7.11 44.77 8.18L44.77 8.18L44.77 8.27L44.77 8.27Q44.77 9.39 43.98 10.04L43.98 10.04L43.98 10.04Q43.19 10.68 41.68 10.68L41.68 10.68L41.68 10.68Q40.15 10.68 39.37 10.00L39.37 10.00L39.37 10.00Q38.58 9.31 38.58 8.23L38.58 8.23L38.58 8.18L40.39 8.18L40.39 8.18Q40.39 9.27 41.68 9.27ZM48.64 0.98L48.64 3.08L50.69 3.08L50.69 4.68L48.64 4.68L48.64 7.88L48.64 7.88Q48.64 8.58 48.93 8.83L48.93 8.83L48.93 8.83Q49.22 9.09 49.84 9.09L49.84 9.09L49.84 9.09Q50.36 9.09 50.55 8.99L50.55 8.99L50.55 10.50L50.55 10.50Q50.19 10.68 49.41 10.68L49.41 10.68L49.41 10.68Q46.82 10.68 46.82 8.08L46.82 8.08L46.82 4.68L45.68 4.68L45.68 3.08L46.82 3.08L46.82 0.98L48.64 0.98Z"></path></g><!----><g data-v-423bf9ae="" id="1aefc11a-d6c9-42e0-9ac5-88622dd7b79e" transform="matrix(2.8125,0,0,2.8125,0,0)" stroke="none" fill="#7367f0"><path d="M9.382 8.675h13.943v13.943L32 31.293V0H.707zM22.618 23.325H8.675V9.382L0 .707V32h31.293z"></path></g><!----></svg>